<?xml version="1.0" encoding="utf-8"?>
<svg version="1.1" id="Livello_1" xmlns="http://www.w3.org/2000/svg" xmlns:xlink="http://www.w3.org/1999/xlink" x="0px" y="0px"
	 viewBox="0 0 34 34" style="enable-background:new 0 0 34 34;" xml:space="preserve">
<style type="text/css">
	.st0{opacity:0.65;fill:#010101;}
	.st1{fill:#FFFFFF;}
</style>
<g id="XMLID_29_">
	<circle id="XMLID_2_" class="st0" cx="17" cy="17" r="17"/>
	<g>
		<path class="st1" d="M16.7,14.3c-0.6,1.1-1.5,2.4-2.7,3.9c-1.4,1.9-2.4,3.1-2.8,3.8c-0.4,0.7-0.9,1-1.4,1c-0.5,0-1-0.3-1.4-0.8
			c-0.4-0.5-0.6-1.1-0.6-1.8c0-0.5,0.1-1.1,0.4-1.6c0.4-0.8,1.6-2.4,3.5-4.9c1.5-1.9,2.5-3.7,3-5.5c0.4-1.5,1-2.2,1.8-2.2
			c0.7,0,1.3,0.7,1.8,2c0.6,1.8,1.8,3.7,3.4,5.8c2.3,3,3.6,4.7,3.9,5.3c0.3,0.6,0.5,1.1,0.5,1.7c0,0.7-0.2,1.3-0.6,1.8
			c-0.4,0.5-0.8,0.8-1.4,0.8c-0.5,0-0.9-0.3-1.4-0.9C21.4,21,19.4,18.2,16.7,14.3z"/>
	</g>
</g>
</svg>
