<?xml version="1.0" encoding="utf-8"?>
<svg version="1.1" id="Livello_1" xmlns="http://www.w3.org/2000/svg" xmlns:xlink="http://www.w3.org/1999/xlink" x="0px" y="0px"
	 viewBox="0 0 292.5 154.7" style="enable-background:new 0 0 292.5 154.7;" xml:space="preserve">
<style type="text/css">
	.st0{fill:#D0202D;}
	.st1{fill:#FFFFFF;}
	.st2{fill:#273476;}
</style>
<g id="XMLID_57_">
	<g id="_x23_cf142bff">
		<path id="XMLID_20_" class="st0" d="M0,0L0,0c32.5,17.2,65,34.4,97.5,51.6c-6.9,0-13.8,0-20.7,0c-0.4,0-0.8,0.1-1.2-0.1
			C50.4,38.2,25.2,24.8,0,11.5V0z"/>
		<path id="XMLID_19_" class="st0" d="M131.6,0h29.3c0,20.6,0,41.2,0,61.9c43.9,0,87.8,0,131.6,0v30.9c-43.9,0-87.8,0-131.6,0
			c0,20.6,0,41.2,0,61.9h-29.3c0-20.6,0-41.2,0-61.9c-43.9,0-87.8,0-131.6,0V61.9c43.9,0,87.8,0,131.6,0
			C131.6,41.2,131.6,20.6,131.6,0z"/>
		<path id="XMLID_18_" class="st0" d="M270.7,0h21.8c-32.5,17.2-65,34.4-97.5,51.5c-7.3,0-14.5,0-21.8,0
			C205.7,34.4,238.2,17.1,270.7,0z"/>
		<path id="XMLID_17_" class="st0" d="M40.3,133.4c19.1-10.1,38.1-20.2,57.2-30.2c7.3,0,14.5,0,21.8,0c-32.5,17.2-65,34.4-97.5,51.6
			H0.1C13.4,147.5,26.9,140.5,40.3,133.4z"/>
		<path id="XMLID_16_" class="st0" d="M195,103.1c7.2,0,14.5,0,21.7,0c3.7,1.9,7.4,3.9,11.1,5.8c21.6,11.4,43.2,22.8,64.7,34.2v11.5
			h-0.1c-6.5-3.5-13.1-6.9-19.6-10.4C246.9,130.5,221,116.8,195,103.1z"/>
	</g>
	<g id="_x23_ffffffff">
		<path id="XMLID_15_" class="st1" d="M0,0h32.7c29.8,15.7,59.5,31.4,89.2,47.1c0-15.7,0-31.4,0-47.1h9.8c0,20.6,0,41.2,0,61.9
			c-43.9,0-87.8,0-131.6,0V51.6c21.6,0,43.2,0,64.8,0C43.2,40.2,21.6,28.7,0,17.3v-5.8c25.2,13.3,50.4,26.7,75.6,40
			c0.4,0.1,0.8,0,1.2,0.1c6.9,0,13.8,0,20.7,0C65,34.4,32.5,17.2,0,0z"/>
		<path id="XMLID_14_" class="st1" d="M160.9,0h9.8c0,15.7,0,31.4,0,47.1c29.7-15.7,59.5-31.5,89.2-47.1h10.9
			c-32.5,17.1-65,34.4-97.5,51.6c7.3,0,14.5,0,21.8,0c32.5-17.2,65-34.4,97.5-51.5h0v17.3c-21.6,11.4-43.2,22.9-64.9,34.3
			c21.6,0,43.2,0,64.9,0v10.3c-43.9,0-87.8,0-131.6,0C160.9,41.2,160.9,20.6,160.9,0z"/>
		<path id="XMLID_13_" class="st1" d="M0,92.8c43.9,0,87.8,0,131.6,0c0,20.6,0,41.2,0,61.9h-9.8c0-15.7,0-31.4,0-47.2
			c-29.7,15.7-59.5,31.5-89.2,47.2H21.8c32.5-17.2,65-34.4,97.5-51.6c-7.3,0-14.5,0-21.8,0c-19.1,10.1-38.1,20.2-57.2,30.2
			c-13.4,7.1-26.9,14.2-40.2,21.3H0v-17.3c21.6-11.5,43.2-22.8,64.8-34.3c-21.6,0-43.2,0-64.8,0V92.8z"/>
		<path id="XMLID_12_" class="st1" d="M160.9,92.8c43.9,0,87.8,0,131.6,0v10.3c-21.6,0-43.2,0-64.8,0c21.6,11.4,43.2,22.8,64.8,34.3
			v5.7c-21.6-11.4-43.1-22.8-64.7-34.2c-3.7-1.9-7.3-3.9-11.1-5.8c-7.2,0-14.5,0-21.7,0c25.9,13.7,51.9,27.4,77.8,41.2
			c6.5,3.5,13.1,6.9,19.6,10.4h-32.6c-29.8-15.7-59.5-31.5-89.2-47.2c0,15.7,0,31.4,0,47.2h-9.8C160.9,134,160.9,113.4,160.9,92.8z"
			/>
	</g>
	<g id="_x23_00247dff">
		<path id="XMLID_11_" class="st2" d="M32.7,0h89.2c0,15.7,0,31.4,0,47.1C92.1,31.4,62.4,15.7,32.7,0z"/>
		<path id="XMLID_10_" class="st2" d="M170.6,0h89.2c-29.7,15.7-59.5,31.4-89.2,47.1C170.6,31.4,170.7,15.7,170.6,0z"/>
		<path id="XMLID_9_" class="st2" d="M0,17.3c21.6,11.4,43.2,22.9,64.8,34.3c-21.6,0-43.2,0-64.8,0V17.3z"/>
		<path id="XMLID_8_" class="st2" d="M227.7,51.6c21.6-11.4,43.2-22.9,64.9-34.3v34.3C270.9,51.6,249.3,51.6,227.7,51.6z"/>
		<path id="XMLID_7_" class="st2" d="M0,103.1c21.6,0,43.2,0,64.8,0C43.2,114.5,21.6,125.9,0,137.4V103.1z"/>
		<path id="XMLID_6_" class="st2" d="M227.8,103.1c21.6,0,43.2,0,64.8,0v34.3C271,125.9,249.4,114.5,227.8,103.1z"/>
		<path id="XMLID_5_" class="st2" d="M32.7,154.7c29.7-15.7,59.5-31.5,89.2-47.2c0,15.7,0,31.4,0,47.2H32.7z"/>
		<path id="XMLID_4_" class="st2" d="M170.6,107.5c29.8,15.7,59.5,31.5,89.2,47.2h-89.2C170.6,138.9,170.6,123.2,170.6,107.5z"/>
	</g>
</g>
</svg>
