<?xml version="1.0" encoding="utf-8"?>
<!-- Generator: Adobe Illustrator 19.0.0, SVG Export Plug-In . SVG Version: 6.00 Build 0)  -->
<svg version="1.1" id="Livello_1" xmlns="http://www.w3.org/2000/svg" xmlns:xlink="http://www.w3.org/1999/xlink" x="0px" y="0px"
	 viewBox="-1632 -1020.7 2834.6 2834.6" style="enable-background:new -1632 -1020.7 2834.6 2834.6;" xml:space="preserve">
<style type="text/css">
	.st0{fill:#FCB816;}
	.st1{fill:#F39020;}
</style>
<g>
	<path class="st0" d="M-63.1,1584.3c21.9-9.4,43.8-9.4,62.5-9.4c6.3,25,6.3,50,9.4,71.9c6.3,28.1,9.4,53.1,12.5,81.3
		c3.1,21.9,9.4,46.9,6.3,65.6c-25-53.1-46.9-103.1-65.6-156.3C-50.6,1621.8-59.9,1603-63.1,1584.3 M-247.5,1565.5
		c18.8,3.1,40.6,6.3,56.3,9.4c6.3,0,15.6,6.3,15.6,15.6c0,12.5-3.1,25-3.1,40.6c0,50-12.5,96.9-12.5,146.9c0,12.5-3.1,25-3.1,37.5
		c-3.1-3.1-9.4-6.3-12.5-6.3c-12.5-59.4-25-121.9-37.5-181.3C-244.3,1603-247.5,1587.4-247.5,1565.5 M118.2,1543.6
		c18.8-9.4,37.5-21.9,56.3-15.6c9.4,21.9,15.6,46.9,25,65.6c9.4,25,18.8,53.1,28.1,75c3.1,6.3,0,15.6-3.1,21.9
		C183.8,1643.6,149.4,1596.8,118.2,1543.6 M-422.5,1662.4c9.4-53.1-3.1-106.3,6.3-159.4c28.1,12.5,53.1,25,78.1,40.6
		c-18.8,56.3-34.4,115.6-53.1,168.8c-12.5,34.4-18.8,65.6-31.3,100c-3.1-21.9-3.1-43.8-3.1-62.5
		C-422.5,1721.8-425.6,1693.6-422.5,1662.4 M-572.5,1437.4c3.1-12.5,6.3-25,9.4-37.5c18.8,12.5,37.5,28.1,53.1,40.6
		c12.5,9.4,21.9,18.8,31.3,31.3c-3.1,15.6-9.4,25-18.8,40.6c-37.5,62.5-71.9,131.3-109.4,196.9c-12.5,18.8-21.9,37.5-31.3,56.3
		c-3.1,0-6.3,0-9.4,0c9.4-43.8,18.8-87.5,31.3-131.3C-597.5,1565.5-585,1499.9-572.5,1437.4 M-685,1306.1
		c6.3-12.5,12.5-25,21.9-34.4c15.6,21.9,28.1,40.6,43.8,59.4c9.4,12.5,21.9,21.9,28.1,37.5c-28.1,37.5-59.4,65.6-90.6,103.1
		c-25,31.3-53.1,56.3-75,87.5c-9.4,9.4-18.8,21.9-28.1,31.3c-18.8,18.8-34.4,43.8-53.1,56.3c6.3-31.3,25-53.1,37.5-84.4
		c15.6-34.4,34.4-65.6,46.9-100C-731.9,1412.4-703.8,1362.4-685,1306.1 M-931.9-90.9c37.5,28.1,65.6,59.4,103.1,90.6
		c37.5,34.4,68.8,62.5,106.3,100c71.9,62.5,143.8,131.3,215.6,196.9c18.8,18.8,43.8,34.4,56.3,53.1c6.3,6.3-3.1,15.6-6.3,18.8
		c-34.4,28.1-65.6,53.1-96.9,81.3c-37.5,37.5-68.8,75-100,118.8c-40.6,62.5-71.9,131.3-87.5,206.3c-9.4,34.4-12.5,68.8-18.8,103.1
		c0,34.4,0,65.6,0,100c9.4,46.9,12.5,93.8,28.1,140.6c9.4,31.3,25,62.5,37.5,93.8c6.3,15.6,18.8,31.3,25,50
		c-3.1,9.4-12.5,15.6-21.9,21.9c-84.4,62.5-165.6,128.1-253.1,190.6c-25,18.8-50,40.6-75,53.1c43.8-59.4,87.5-118.8,134.4-175
		c37.5-50,71.9-96.9,109.4-143.8c9.4-12.5,18.8-25,25-40.6c-25-6.3-40.6,3.1-53.1,12.5c-106.3,50-212.5,96.9-318.8,150
		c-9.4,3.1-18.8,6.3-28.1,6.3c12.5-15.6,28.1-28.1,40.6-40.6c65.6-53.1,131.3-112.5,193.8-168.8c25-25,53.1-46.9,78.1-71.9
		c-18.8-6.3-40.6,0-56.3,3.1c-75,18.8-153.1,34.4-231.3,53.1c-25,6.3-53.1,9.4-75,18.8c-21.9,3.1-43.8,12.5-65.6,12.5
		c28.1-18.8,56.3-34.4,84.4-50c90.6-46.9,175-96.9,265.7-146.9c15.6-9.4,31.3-18.8,46.9-28.1c-59.4-3.1-121.9,0-184.4,0
		c-15.6,0-31.3,3.1-46.9,3.1c-46.9,0-90.6,0-137.5,0c-28.1,3.1-53.1,3.1-78.1,3.1c25-18.8,53.1-21.9,81.3-31.3
		c112.5-34.4,225-65.6,337.5-103.1c-15.6-12.5-34.4-15.6-53.1-18.8c-96.9-18.8-193.8-40.6-290.7-56.3c-28.1-6.3-56.3-9.4-84.4-25
		c28.1-3.1,56.3-6.3,84.4-6.3c43.8-6.3,84.4-12.5,131.3-12.5c25-3.1,50-9.4,71.9-9.4c28.1-3.1,56.3-3.1,84.4-9.4
		c21.9-6.3,46.9,0,65.6-9.4c-34.4-18.8-68.8-31.3-106.3-46.9c-53.1-25-112.5-50-165.6-68.8c-43.8-21.9-87.5-37.5-134.4-56.3
		c21.9-9.4,43.8,0,59.4,3.1c21.9,3.1,43.8,3.1,62.5,6.3c25,3.1,53.1,9.4,75,9.4c40.6,9.4,78.1,9.4,118.8,15.6
		c28.1,3.1,53.1,3.1,81.3,9.4c15.6,3.1,28.1,3.1,43.8,3.1c-25-21.9-53.1-37.5-75-53.1c-59.4-43.8-118.8-84.4-178.1-125
		c-34.4-25-71.9-46.9-103.1-75c9.4-3.1,18.8-3.1,25,3.1c84.4,34.4,171.9,59.4,262.5,90.6c43.8,15.6,84.4,31.3,128.1,43.8
		c-9.4-25-31.3-40.6-50-56.3c-34.4-31.3-59.4-62.5-90.6-96.9c-31.3-31.3-56.3-62.5-87.5-93.8c-25-28.1-50-53.1-71.9-81.3
		c3.1,0,6.3-3.1,6.3-3.1c21.9,15.6,46.9,28.1,68.8,43.8c84.4,53.1,165.6,100,253.1,153.1c15.6,9.4,31.3,21.9,53.1,25
		c-3.1-18.8-12.5-34.4-21.9-46.9c-21.9-34.4-40.6-68.8-59.4-103.1C-841.3,59.1-894.4-12.8-931.9-90.9 M565.1-694.1
		c9.4-6.3,18.8-12.5,28.1-15.6c-3.1,9.4-9.4,18.8-15.6,25c-46.9,59.4-90.6,118.8-137.5,181.3c-37.5,53.1-78.1,96.9-112.5,150
		c31.3-6.3,53.1-25,81.3-37.5c100-46.9,196.9-90.6,296.9-137.5c6.3-3.1,15.6-3.1,21.9,0c-37.5,34.4-71.9,62.5-109.4,93.8
		c-28.1,25-53.1,50-81.3,71.9c-43.8,37.5-84.4,71.9-125,109.4c18.8,9.4,37.5-3.1,53.1-6.3c56.3-12.5,112.5-25,165.6-37.5
		c53.1-15.6,109.4-25,162.5-40.6c12.5-3.1,21.9,0,34.4,0c-21.9,18.8-46.9,28.1-68.8,40.6c-46.9,25-87.5,50-131.3,71.9
		c-40.6,21.9-75,46.9-118.8,62.5c-18.8,9.4-37.5,21.9-53.1,31.3c0,3.1,0,6.3,0,9.4c56.3,0,118.8,0,175,0c15.6,0,34.4-3.1,50-3.1
		c59.4,0,118.8,0,178.1,0c9.4,0,15.6,3.1,21.9,9.4C755.8-78.4,633.9-40.9,512-3.4c-15.6,3.1-28.1,12.5-40.6,18.8
		c40.6,6.3,78.1,12.5,118.8,21.9C696.4,59.1,799.5,81,902.6,96.6c-18.8,12.5-43.8,6.3-62.5,9.4c-43.8,9.4-84.4,9.4-128.1,12.5
		c-50,9.4-96.9,6.3-146.9,15.6c-25,6.3-50,0-71.9,3.1c-12.5,0-21.9,3.1-34.4,3.1c21.9,18.8,50,25,71.9,37.5
		c71.9,34.4,146.9,62.5,218.8,93.8c34.4,15.6,65.6,28.1,100,43.8c0,0,0,3.1-3.1,6.3c-40.6,6.3-78.1-12.5-118.8-12.5
		c-31.3-3.1-62.5-9.4-93.8-12.5c-31.3-6.3-59.4-9.4-90.6-12.5c-40.6-9.4-81.3-12.5-121.9-15.6c12.5,15.6,25,28.1,43.8,37.5
		c87.5,56.3,171.9,118.8,259.4,178.1c25,18.8,50,34.4,68.8,53.1c-18.8-3.1-34.4-6.3-53.1-12.5c-81.3-31.3-165.6-56.3-250-87.5
		c-40.6-12.5-78.1-31.3-121.9-40.6c3.1,18.8,18.8,28.1,31.3,40.6c34.4,40.6,68.8,78.1,106.3,115.6c37.5,34.4,62.5,71.9,96.9,106.3
		c18.8,21.9,37.5,40.6,53.1,59.4c-31.3-12.5-56.3-34.4-84.4-50c-31.3-18.8-59.4-37.5-90.6-53.1c-43.8-25-84.4-50-125-75
		c-25-15.6-50-31.3-75-43.8c6.3,21.9,18.8,43.8,31.3,62.5c31.3,53.1,62.5,106.3,96.9,159.4c15.6,28.1,34.4,53.1,50,81.3
		c15.6,25,31.3,46.9,40.6,68.8c-28.1-18.8-50-46.9-71.9-65.6c-43.8-40.6-84.4-81.3-128.1-125c-53.1-50-106.3-103.1-159.4-153.1
		c-28.1-28.1-56.3-53.1-87.5-81.3c-6.3-6.3-12.5-12.5-15.6-18.8c15.6-18.8,34.4-34.4,53.1-50c106.3-84.4,184.4-203.1,225-334.4
		c12.5-40.6,18.8-81.3,25-125c0-31.3,0-62.5,0-93.8c0-21.9-6.3-43.8-9.4-62.5c-9.4-56.3-25-112.5-50-162.5
		c-9.4-25-21.9-46.9-31.3-65.6c12.5-15.6,28.1-21.9,43.8-34.4C383.8-559.7,474.5-625.3,565.1-694.1 M380.7-819.1
		c12.5-15.6,28.1-34.4,46.9-46.9c-18.8,50-43.8,93.8-62.5,140.6c-37.5,75-68.8,153.1-106.3,228.1c-6.3,9.4-9.4,21.9-18.8,21.9
		c-15.6-18.8-28.1-37.5-40.6-53.1c-9.4-15.6-25-25-34.4-40.6c15.6-25,37.5-43.8,53.1-65.6c25-25,46.9-50,62.5-75
		C321.3-744.1,352.6-784.7,380.7-819.1 M-653.8-912.8c9.4,9.4,18.8,21.9,25,34.4c31.3,46.9,59.4,87.5,90.6,131.3
		c-15.6,12.5-37.5,21.9-56.3,25c-15.6-46.9-31.3-87.5-46.9-134.4C-644.4-878.5-653.8-894.1-653.8-912.8 M171.3-878.5
		c12.5-31.3,31.3-56.3,50-81.3c0,18.8-6.3,34.4-9.4,53.1c-15.6,62.5-28.1,125-43.8,187.5c-9.4,40.6-15.6,78.1-28.1,115.6
		c-28.1-15.6-50-37.5-71.9-53.1c-9.4-6.3-6.3-18.8,0-28.1C102.6-750.3,136.9-816,171.3-878.5 M-447.5-997.2
		c21.9,34.4,34.4,68.8,50,106.3c15.6,37.5,37.5,68.8,46.9,109.4c-18.8,0-37.5,6.3-56.3,3.1c-9.4,0-12.5-9.4-12.5-15.6
		c-3.1-21.9-3.1-43.8-6.3-59.4c-6.3-28.1-9.4-56.3-9.4-84.4C-441.2-956.6-450.6-978.5-447.5-997.2 M-231.8-978.5
		c0-12.5,3.1-21.9,3.1-34.4c3.1,0,9.4,3.1,12.5,6.3c15.6,78.1,31.3,159.4,46.9,240.6c-28.1,3.1-53.1-6.3-78.1-12.5
		c0-28.1,6.3-53.1,3.1-81.3C-238.1-903.5-231.8-937.9-231.8-978.5 M2.6-1022.2c6.3,25,3.1,50,3.1,71.9c0,43.8,3.1,84.4-3.1,125
		c-3.1,37.5,3.1,75-3.1,112.5c-28.1-3.1-53.1-18.8-75-31.3c-6.3-25,6.3-46.9,15.6-68.8C-44.3-878.5-22.4-947.2,2.6-1022.2"/>
	<path class="st1" d="M-1400.7,549.8c9.4,21.9,9.4,43.8,9.4,62.5c-25,6.3-50,6.3-71.9,9.4c-28.1,6.3-53.1,9.4-81.3,12.5
		c-21.9,3.1-46.9,9.4-65.6,6.3c53.1-25,103.1-46.9,156.3-65.6C-1438.2,559.2-1422.6,549.8-1400.7,549.8 M-1381.9,362.3
		c-3.1,18.8-6.3,40.6-9.4,56.3c0,6.3-6.3,15.6-15.6,15.6c-12.5,0-25-3.1-40.6-3.1c-50,0-96.9-12.5-146.9-12.5
		c-12.5,0-25-3.1-37.5-3.1c3.1-3.1,6.3-9.4,6.3-12.5c59.4-12.5,121.9-25,181.3-37.5C-1422.6,365.4-1403.8,362.3-1381.9,362.3
		 M-1360.1,727.9c9.4,18.8,21.9,37.5,15.6,56.3c-21.9,9.4-46.9,15.6-65.6,25c-25,9.4-53.1,18.8-75,28.1c-6.3,3.1-15.6,0-21.9-3.1
		C-1460.1,793.6-1413.2,762.3-1360.1,727.9 M-1478.8,187.3c53.1,9.4,106.3-3.1,159.4,6.3c-12.5,28.1-25,53.1-40.6,78.1
		c-56.3-18.8-115.6-34.4-168.8-53.1c-34.4-12.5-65.6-18.8-100-31.3c21.9-3.1,43.8-3.1,62.5-3.1
		C-1538.2,187.3-1510.1,184.1-1478.8,187.3 M-1253.8,37.2c12.5,3.1,25,6.3,37.5,9.4c-12.5,18.8-28.1,37.5-40.6,53.1
		c-9.4,12.5-18.8,21.9-31.3,31.3c-15.6-3.1-25-9.4-40.6-18.8c-62.5-37.5-131.3-71.9-196.9-109.4c-18.8-12.5-37.5-21.9-56.3-31.3
		c0-3.1,0-6.3,0-9.4c43.8,9.4,87.5,18.8,131.3,31.3C-1381.9,12.2-1319.4,24.7-1253.8,37.2 M-1122.5-75.3c12.5,6.3,25,12.5,34.4,21.9
		c-21.9,15.6-40.6,28.1-59.4,43.8c-12.5,9.4-21.9,21.9-37.5,28.1c-37.5-28.1-65.6-59.4-103.1-90.6c-31.3-25-56.3-53.1-87.5-75
		c-9.4-9.4-21.9-18.8-31.3-28.1c-18.8-18.8-43.8-34.4-56.3-53.1c31.3,6.3,53.1,25,84.4,37.5c34.4,15.6,65.6,34.4,100,46.9
		C-1228.8-122.1-1178.8-94-1122.5-75.3 M274.5-322.2c-28.1,37.5-59.4,65.6-90.6,103.1c-34.4,37.5-62.5,68.8-100,106.3
		C21.3-40.9-47.4,31-113.1,102.9c-18.8,18.8-34.4,43.8-53.1,56.3c-6.3,6.3-15.6-3.1-18.8-6.3c-28.1-34.4-53.1-65.6-81.3-96.9
		c-37.5-37.5-75-68.8-118.8-100c-62.5-40.6-131.3-71.9-206.3-87.5c-34.4-9.4-68.8-12.5-103.1-18.8c-34.4,0-65.6,0-100,0
		c-46.9,9.4-93.8,12.5-140.6,28.1c-31.3,9.4-62.5,25-93.8,37.5c-15.6,6.3-31.3,18.8-50,25c-9.4-3.1-15.6-12.5-21.9-21.9
		c-62.5-84.4-128.1-165.6-190.6-253.1c-18.8-25-40.6-50-53.1-75c59.4,43.8,118.8,87.5,175,134.4c50,37.5,96.9,71.9,143.8,109.4
		c12.5,9.4,25,18.8,40.6,25c6.3-25-3.1-40.6-12.5-53.1c-50-106.3-96.9-212.5-150-318.8c-3.1-9.4-6.3-18.8-6.3-28.1
		c15.6,12.5,28.1,28.1,40.6,40.6c53.1,65.6,112.5,131.3,168.8,193.8c25,25,46.9,53.1,71.9,78.1c6.3-18.8,0-40.6-3.1-56.3
		c-18.8-75-34.4-153.1-53.1-231.3c-6.3-25-9.4-53.1-18.8-75c-3.1-21.9-12.5-43.8-12.5-65.6c18.8,28.1,34.4,56.3,50,84.4
		c46.9,90.6,96.9,175,146.9,265.7c9.4,15.6,18.8,31.3,28.1,46.9c3.1-59.4,0-121.9,0-184.4c0-15.6-3.1-31.3-3.1-46.9
		c0-46.9,0-90.6,0-137.5c-3.1-28.1-3.1-53.1-3.1-78.1c18.8,25,21.9,53.1,31.3,81.3c34.4,112.5,65.6,225,103.1,337.5
		c12.5-15.6,15.6-34.4,18.8-53.1c18.8-96.9,40.6-193.8,56.3-290.7c6.3-28.1,9.4-56.3,25-84.4c3.1,28.1,6.3,56.3,6.3,84.4
		c6.3,43.8,12.5,84.4,12.5,131.3c3.1,25,9.4,50,9.4,71.9c3.1,28.1,3.1,56.3,9.4,84.4c6.3,21.9,0,46.9,9.4,65.6
		c18.8-34.4,31.3-68.8,46.9-106.3c25-53.1,50-112.5,68.8-165.6c21.9-43.8,37.5-87.5,56.3-134.4c9.4,21.9,0,43.8-3.1,59.4
		c-3.1,21.9-3.1,43.8-6.3,62.5c-3.1,25-9.4,53.1-9.4,75c-9.4,40.6-9.4,78.1-15.6,118.8c-3.1,28.1-3.1,53.1-9.4,81.3
		c-3.1,15.6-3.1,28.1-3.1,43.8c21.9-25,37.5-53.1,53.1-75c43.8-59.4,84.4-118.8,125-178.1c25-34.4,46.9-71.9,75-103.1
		c3.1,9.4,3.1,18.8-3.1,25c-34.4,84.4-59.4,171.9-90.6,262.5c-15.6,43.8-31.3,84.4-43.8,128.1c25-9.4,40.6-31.3,56.3-50
		c31.3-34.4,62.5-59.4,96.9-90.6c31.3-31.3,62.5-56.3,93.8-87.5c28.1-25,53.1-50,81.3-71.9c0,3.1,3.1,6.3,3.1,6.3
		c-15.6,21.9-28.1,46.9-43.8,68.8C15.1-325.3-31.8-244-85-156.5c-9.4,15.6-21.9,31.3-25,53.1c18.8-3.1,34.4-12.5,46.9-21.9
		c34.4-21.9,68.8-40.6,103.1-59.4C124.4-231.5,196.3-284.7,274.5-322.2 M877.6,1174.8c6.3,9.4,12.5,18.8,15.6,28.1
		c-9.4-3.1-18.8-9.4-25-15.6c-59.4-46.9-118.8-90.6-181.3-137.5c-53.1-37.5-96.9-78.1-150-112.5c6.3,31.3,25,53.1,37.5,81.3
		c46.9,100,90.6,196.9,137.5,296.9c3.1,6.3,3.1,15.6,0,21.9c-34.4-37.5-62.5-71.9-93.8-109.4c-25-28.1-50-53.1-71.9-81.3
		c-37.5-43.8-71.9-84.4-109.4-125c-9.4,18.8,3.1,37.5,6.3,53.1c12.5,56.3,25,112.5,37.5,165.6c15.6,53.1,25,109.4,40.6,162.5
		c3.1,12.5,0,21.9,0,34.4c-18.8-21.9-28.1-46.9-40.6-68.8c-25-46.9-50-87.5-71.9-131.3c-21.9-40.6-46.9-75-62.5-118.8
		c-9.4-18.8-21.9-37.5-31.3-53.1c-3.1,0-6.3,0-9.4,0c0,56.3,0,118.8,0,175c0,15.6,3.1,34.4,3.1,50c0,59.4,0,118.8,0,178.1
		c0,9.4-3.1,15.6-9.4,21.9c-37.5-125-75-246.9-112.5-368.8c-3.1-15.6-12.5-28.1-18.8-40.6c-6.3,40.6-12.5,78.1-21.9,118.8
		c-21.9,106.3-43.8,209.4-59.4,312.5c-12.5-18.8-6.3-43.8-9.4-62.5c-9.4-43.8-9.4-84.4-12.5-128.1c-9.4-50-6.3-96.9-15.6-146.9
		c-6.3-25,0-50-3.1-71.9c0-12.5-3.1-21.9-3.1-34.4c-18.8,21.9-25,50-37.5,71.9c-34.4,71.9-62.5,146.9-93.8,218.8
		c-15.6,34.4-28.1,65.6-43.8,100c0,0-3.1,0-6.3-3.1c-6.3-40.6,12.5-78.1,12.5-118.8c3.1-31.3,9.4-62.5,12.5-93.8
		c6.3-31.3,9.4-59.4,12.5-90.6c9.4-40.6,12.5-81.3,15.6-121.9c-15.6,12.5-28.1,25-37.5,43.8c-56.3,87.5-118.8,171.9-178.1,259.4
		c-18.8,25-34.4,50-53.1,68.8c3.1-18.8,6.3-34.4,12.5-53.1c31.3-81.3,56.3-165.6,87.5-250c12.5-40.6,31.3-78.1,40.6-121.9
		c-18.8,3.1-28.1,18.8-40.6,31.3c-40.6,34.4-78.1,68.8-115.6,106.3c-34.4,37.5-71.9,62.5-106.3,96.9c-21.9,18.8-40.6,37.5-59.4,53.1
		c12.5-31.3,34.4-56.3,50-84.4c18.8-31.3,37.5-59.4,53.1-90.6c25-43.8,50-84.4,75-125c15.6-25,31.3-50,43.8-75
		c-21.9,6.3-43.8,18.8-62.5,31.3c-53.1,31.3-106.3,62.5-159.4,96.9c-28.1,15.6-53.1,34.4-81.3,50c-25,15.6-46.9,31.3-68.8,40.6
		c18.8-28.1,46.9-50,65.6-71.9c40.6-43.8,81.3-84.4,125-128.1c50-53.1,103.1-106.3,153.1-159.4c28.1-28.1,53.1-56.3,81.3-87.5
		c6.3-6.3,12.5-12.5,18.8-15.6c18.8,15.6,34.4,34.4,50,53.1c84.4,106.3,203.1,184.4,334.4,225c40.6,12.5,81.3,18.8,125,25
		c31.3,0,62.5,0,93.8,0c21.9,0,43.8-6.3,62.5-9.4c56.3-9.4,112.5-25,162.5-50c25-9.4,46.9-21.9,65.6-31.3
		c15.6,12.5,21.9,28.1,34.4,43.8C743.3,993.6,808.9,1084.2,877.6,1174.8 M1002.7,990.5c15.6,12.5,34.4,28.1,46.9,46.9
		c-50-18.8-93.8-43.8-140.6-62.5c-75-37.5-153.1-68.8-228.1-106.3c-9.4-6.3-21.9-9.4-21.9-18.8c18.8-15.6,37.5-28.1,53.1-40.6
		c15.6-9.4,25-25,40.6-34.4c25,15.6,43.8,37.5,65.6,53.1c25,25,50,46.9,75,62.5C927.6,931.1,968.3,962.3,1002.7,990.5 M1093.3-44
		c-9.4,9.4-21.9,18.8-34.4,25c-46.9,31.3-87.5,59.4-131.3,90.6c-12.5-15.6-21.9-37.5-25-56.3c46.9-15.6,87.5-31.3,134.4-46.9
		C1062-34.6,1077.7-44,1093.3-44 M1062,781.1c31.3,12.5,56.3,31.3,81.3,50c-18.8,0-34.4-6.3-53.1-9.4
		c-62.5-15.6-125-28.1-187.5-43.8c-40.6-9.4-78.1-15.6-115.6-28.1c15.6-28.1,37.5-50,53.1-71.9c6.3-9.4,18.8-6.3,28.1,0
		C933.9,712.3,996.4,746.7,1062,781.1 M1180.8,162.3c-34.4,21.9-68.8,34.4-106.3,50c-37.5,15.6-68.8,37.5-109.4,46.9
		c0-18.8-6.3-37.5-3.1-56.3c0-9.4,9.4-12.5,15.6-12.5c21.9-3.1,43.8-3.1,59.4-6.3c28.1-6.3,56.3-9.4,84.4-9.4
		C1140.2,168.5,1162,159.1,1180.8,162.3 M1162,377.9c12.5,0,21.9,3.1,34.4,3.1c0,3.1-3.1,9.4-6.3,12.5
		c-78.1,15.6-159.4,31.3-240.6,46.9c-3.1-28.1,6.3-53.1,12.5-78.1c28.1,0,53.1,6.3,81.3,3.1C1087,371.6,1121.4,377.9,1162,377.9
		 M1202.7,612.3c-25,6.3-50,3.1-71.9,3.1c-43.8,0-84.4,3.1-125-3.1c-37.5-3.1-75,3.1-112.5-3.1c3.1-28.1,18.8-53.1,31.3-75
		c25-6.3,46.9,6.3,68.8,15.6C1062,565.4,1130.8,587.3,1202.7,612.3"/>
</g>
</svg>
