<?xml version="1.0" encoding="utf-8"?>
<svg version="1.1" id="Livello_1" xmlns="http://www.w3.org/2000/svg" xmlns:xlink="http://www.w3.org/1999/xlink" x="0px" y="0px"
	 viewBox="-216 350.2 162.7 140.7" style="enable-background:new -216 350.2 162.7 140.7;" xml:space="preserve">
<style type="text/css">
	.st0{enable-background:new    ;}
	.st1{fill:#FFFFFF;}
	.st2{fill:#FCB816;}
	.st3{fill:#F39020;}
</style>
<g>
	<g class="st0">
		<path class="st1" d="M-165.8,466.4l3.5-15.4l4.4,9.3c0.1,0.1,0.2,0.4,0.3,0.7c0.1,0.3,0.3,0.8,0.5,1.3c0.1-0.4,0.4-1,0.7-1.6
			c0.1-0.2,0.1-0.3,0.2-0.4l4.3-9.3l3.6,15.4h-2.2l-1.6-7.3c0-0.1-0.1-0.4-0.1-0.9c-0.1-0.4-0.1-0.8-0.1-1.1c-0.1,0.3-0.1,0.7-0.3,1
			s-0.3,0.7-0.4,1l-3.9,7.9l-3.9-8c-0.2-0.3-0.3-0.6-0.4-1c-0.1-0.3-0.2-0.6-0.3-0.9c0,0.3,0,0.6-0.1,1c0,0.3-0.1,0.7-0.2,1.1
			l-1.6,7.3H-165.8z"/>
		<path class="st1" d="M-147.4,461.6c0-1.5,0.4-2.8,1.2-3.7c0.8-0.9,1.8-1.4,3.1-1.4c0.8,0,1.4,0.2,2,0.5c0.6,0.3,1,0.8,1.2,1.4
			v-1.6h2.2v9.5h-2.2v-1.2c-0.4,0.6-0.8,1-1.4,1.2c-0.5,0.3-1.1,0.4-1.8,0.4c-1.3,0-2.4-0.5-3.2-1.4
			C-147,464.5-147.4,463.2-147.4,461.6z M-145.1,461.7c0,1,0.2,1.8,0.7,2.3s1.1,0.8,1.9,0.8c0.8,0,1.4-0.3,1.9-0.9
			c0.5-0.6,0.7-1.4,0.7-2.4c0-1-0.2-1.8-0.7-2.3s-1.1-0.8-1.9-0.8c-0.8,0-1.5,0.3-1.9,0.9C-144.9,459.9-145.1,460.7-145.1,461.7z"/>
		<path class="st1" d="M-123,461.7c0-1.5,0.5-2.7,1.4-3.7c0.9-1,2.1-1.4,3.6-1.4c1.5,0,2.7,0.4,3.6,1.3s1.3,2.1,1.3,3.7v0.4h-7.6
			c0.1,0.9,0.3,1.6,0.8,2.1c0.5,0.5,1.1,0.7,1.9,0.7c0.7,0,1.3-0.1,1.8-0.4c0.5-0.3,0.9-0.8,1.2-1.4l1.8,1c-0.5,1-1.2,1.7-2,2.2
			c-0.8,0.5-1.7,0.7-2.8,0.7c-1.5,0-2.8-0.5-3.7-1.4C-122.5,464.5-123,463.2-123,461.7z M-120.6,460.5h5.2c-0.1-0.7-0.3-1.2-0.8-1.6
			s-1-0.5-1.8-0.5c-0.7,0-1.3,0.2-1.7,0.5C-120.1,459.3-120.4,459.8-120.6,460.5z"/>
		<path class="st1" d="M-111.5,461.7c0-0.7,0.1-1.4,0.4-2c0.3-0.6,0.6-1.2,1.1-1.7c0.5-0.5,1.1-0.8,1.7-1.1c0.6-0.3,1.3-0.4,2-0.4
			c0.7,0,1.4,0.1,2,0.4c0.6,0.3,1.2,0.6,1.7,1.1c0.5,0.5,0.9,1,1.1,1.7c0.3,0.6,0.4,1.3,0.4,1.9c0,0.7-0.1,1.4-0.4,2
			s-0.6,1.2-1.1,1.6c-0.5,0.5-1.1,0.9-1.7,1.1c-0.6,0.3-1.3,0.4-2,0.4c-0.7,0-1.4-0.1-2-0.4c-0.6-0.3-1.2-0.6-1.7-1.1
			c-0.5-0.5-0.9-1.1-1.1-1.7C-111.4,463-111.5,462.4-111.5,461.7z M-109.2,461.7c0,0.9,0.3,1.6,0.9,2.3s1.3,0.9,2.1,0.9
			s1.5-0.3,2.1-0.9s0.9-1.4,0.9-2.3c0-0.9-0.3-1.6-0.9-2.3c-0.6-0.6-1.3-0.9-2.1-0.9c-0.8,0-1.5,0.3-2.1,0.9
			S-109.2,460.8-109.2,461.7z"/>
	</g>
	<g class="st0">
		<path class="st1" d="M-189.6,472.9h4.1c0.6,0,1.1,0.2,1.6,0.6c0.4,0.4,0.7,1,0.7,1.7c0,0,0,0.1,0,0.1s0,0.1,0,0.1
			c0,0.1,0,0.3,0,0.5c0,0.2-0.1,0.3-0.1,0.5c-0.1,0.4-0.4,0.7-0.7,1c-0.3,0.3-0.8,0.5-1.3,0.5h-3v3.8h-1.1V472.9z M-188.5,476.9h2.9
			c0,0,0.1,0,0.2-0.1c0.1-0.1,0.2-0.1,0.4-0.3c0.2-0.1,0.3-0.3,0.4-0.5s0.2-0.5,0.2-0.8c0-0.4-0.2-0.7-0.4-0.9
			c-0.2-0.2-0.5-0.3-0.9-0.3h-2.7V476.9z"/>
		<path class="st1" d="M-181.7,472.9h1.1v3.7h4.4v-3.7h1.1v8.8h-1.1v-4h-4.4v4h-1.1V472.9z"/>
		<path class="st1" d="M-172.9,472.9h4.1c0.6,0,1.1,0.2,1.6,0.6c0.4,0.4,0.7,1,0.7,1.7c0,0,0,0.1,0,0.1s0,0.1,0,0.1
			c0,0.1,0,0.3,0,0.5c0,0.2-0.1,0.3-0.1,0.5c-0.1,0.4-0.4,0.7-0.7,1c-0.3,0.3-0.8,0.5-1.3,0.5h-3v3.8h-1.1V472.9z M-171.8,476.9h2.9
			c0,0,0.1,0,0.2-0.1c0.1-0.1,0.2-0.1,0.4-0.3c0.2-0.1,0.3-0.3,0.4-0.5s0.2-0.5,0.2-0.8c0-0.4-0.2-0.7-0.4-0.9
			c-0.2-0.2-0.5-0.3-0.9-0.3h-2.7V476.9z"/>
		<path class="st1" d="M-160,481.8c-0.1,0-0.3,0-0.4,0s-0.3,0-0.4,0c-0.5-0.1-0.9-0.3-1.3-0.7s-0.6-1.2-0.5-2.3h1.1
			c0,0.1,0,0.1,0,0.2c0,0.1,0,0.1,0,0.2c0,0.6,0.1,1,0.4,1.3c0.3,0.3,0.6,0.4,0.9,0.4c0,0,0,0,0,0c0,0,0,0,0,0
			c0.3,0,0.6-0.2,0.9-0.4c0.3-0.3,0.4-0.6,0.4-1.1v-6.5h1.1v6.5c0,0.6-0.2,1.2-0.5,1.6S-159.2,481.8-160,481.8L-160,481.8z"/>
		<path class="st1" d="M-156.3,477.6c0,0,0-0.1,0-0.2c0,0,0-0.1,0-0.1s0-0.1,0-0.1c0-1.1,0.4-2.2,1.1-3.1s1.8-1.4,3.2-1.3
			c0.2,0,0.4,0,0.6,0c0.2,0,0.4,0.1,0.7,0.1c0.6,0.2,1.2,0.5,1.7,1c0.5,0.5,0.9,1.3,1.1,2.3c0,0.1,0,0.3,0,0.4c0,0.1,0,0.3,0,0.4
			c0,0.8-0.1,1.5-0.4,2.1c-0.3,0.7-0.6,1.2-0.9,1.5l1,0.9l-0.7,0.7l-1.1-1c-0.2,0.1-0.4,0.2-0.7,0.3s-0.5,0.2-0.7,0.2
			c-0.2,0-0.3,0.1-0.5,0.1c-0.2,0-0.3,0-0.5,0c-1.1,0-2-0.4-2.9-1.1c-0.8-0.8-1.3-1.8-1.3-3C-156.3,477.7-156.3,477.7-156.3,477.6z
			 M-149.9,474.6c-0.6-0.6-1.3-0.9-2.1-0.9c0,0,0,0,0,0s0,0,0,0c-0.8,0-1.5,0.3-2.1,0.8c-0.6,0.6-1,1.4-1,2.5c0,1.2,0.3,2.1,0.9,2.7
			s1.2,1,1.9,1.1c0.1,0,0.2,0,0.2,0s0.2,0,0.2,0c0.2,0,0.5,0,0.7-0.1c0.2-0.1,0.4-0.2,0.6-0.3l-0.9-0.8l0.6-0.7l1.1,0.9
			c0.2-0.2,0.4-0.5,0.5-0.8s0.3-0.7,0.3-1c0-0.2,0.1-0.3,0.1-0.5s0-0.3,0-0.5C-149,476.1-149.3,475.2-149.9,474.6z"/>
		<path class="st1" d="M-146.5,472.9h1.2v6.2c0,0.6,0.2,1.1,0.7,1.4c0.5,0.3,0.9,0.5,1.5,0.5c0.5,0,1-0.2,1.5-0.5
			c0.5-0.3,0.7-0.8,0.7-1.4v-6.2h1.2v6.2c0,0.9-0.4,1.6-1,2.1c-0.7,0.5-1.5,0.7-2.3,0.8c0,0,0,0,0,0c0,0,0,0,0,0
			c-0.8,0-1.5-0.2-2.2-0.7c-0.7-0.5-1.1-1.2-1.2-2.2V472.9z"/>
		<path class="st1" d="M-137.6,472.9h6v0.9h-4.9v2.8h4.7v1h-4.7v2.9h5.1v1h-6.2V472.9z"/>
		<path class="st1" d="M-129.6,472.9h4.5c0.6,0,1.1,0.2,1.6,0.6c0.4,0.4,0.7,1,0.8,1.7c0,0.1,0,0.3,0,0.5s0,0.3-0.1,0.5
			c-0.1,0.2-0.2,0.4-0.4,0.7c-0.2,0.2-0.4,0.4-0.7,0.6c0.4,0.2,0.7,0.5,0.8,0.8c0.1,0.3,0.2,0.7,0.2,1.1c0,0,0,0,0,0.1
			c0,0,0,0.1,0,0.1c0,0,0,0.1,0,0.1c0,0.1,0,0.1,0,0.2c0,0.3,0,0.7,0,1s0.2,0.5,0.4,0.7v0.3h-1.4c-0.1-0.2-0.1-0.3-0.1-0.5
			c0-0.2,0-0.3-0.1-0.5c0-0.1,0-0.2,0-0.3s0-0.2,0-0.3c0,0,0,0,0-0.1c0,0,0,0,0-0.1c0-0.5-0.1-1-0.2-1.4c-0.1-0.4-0.5-0.7-1.2-0.8
			h-2.9v3.8h-1.1V472.9z M-125.4,476.8C-125.4,476.8-125.3,476.8-125.4,476.8c0.1,0,0.1,0,0.1,0c0.4,0,0.7-0.2,0.9-0.5
			c0.3-0.3,0.4-0.6,0.4-1c0,0,0,0,0,0s0,0,0,0c0,0,0,0,0,0s0,0,0,0c0-0.3-0.1-0.6-0.4-0.9c-0.3-0.3-0.7-0.4-1.3-0.5h-2.7v2.9H-125.4
			z"/>
		<path class="st1" d="M-118.7,478.2l-3.4-5.4h1.4l2.6,4.2l2.4-4.2h1.4l-3.3,5.4v3.4h-1.1V478.2z"/>
		<path class="st1" d="M-110.1,472.9h1.1v3.7h4.4v-3.7h1.1v8.8h-1.1v-4h-4.4v4h-1.1V472.9z"/>
		<path class="st1" d="M-99.2,473.8h-2.9v-0.9h6.9v0.9H-98v7.8h-1.2V473.8z"/>
		<path class="st1" d="M-94,472.9h1.7l2.5,7.4l2.5-7.4h1.7v8.8H-87v-7l-2.4,7h-1.1l-2.4-6.9v6.9H-94V472.9z"/>
		<path class="st1" d="M-84.1,472.9h1.2v7.7h4.3v1h-5.5V472.9z"/>
	</g>
	<path class="st2" d="M-130,442.5c0.7-0.3,1.4-0.3,2.1-0.3c0.2,0.8,0.2,1.6,0.3,2.4c0.2,0.9,0.3,1.8,0.4,2.7
		c0.1,0.7,0.3,1.5,0.2,2.2c-0.8-1.7-1.5-3.4-2.2-5.1C-129.6,443.8-129.9,443.2-130,442.5 M-136.1,441.9c0.6,0.1,1.3,0.2,1.9,0.3
		c0.2,0,0.5,0.2,0.5,0.5c0,0.4-0.1,0.8-0.1,1.3c0,1.6-0.4,3.2-0.4,4.8c0,0.4-0.1,0.8-0.1,1.2c-0.1-0.1-0.3-0.2-0.4-0.2
		c-0.4-2-0.8-4-1.2-6C-136,443.2-136.1,442.6-136.1,441.9 M-124.1,441.2c0.6-0.3,1.2-0.7,1.9-0.5c0.3,0.7,0.5,1.5,0.8,2.2
		c0.3,0.8,0.6,1.7,0.9,2.5c0.1,0.2,0,0.5-0.1,0.7C-121.9,444.5-123,442.9-124.1,441.2 M-141.9,445.1c0.3-1.7-0.1-3.5,0.2-5.2
		c0.9,0.4,1.8,0.8,2.6,1.3c-0.6,1.9-1.1,3.8-1.8,5.6c-0.4,1.1-0.6,2.2-1,3.3c-0.1-0.7-0.1-1.4-0.1-2.1
		C-141.9,447.1-142,446.1-141.9,445.1 M-146.8,437.7c0.1-0.4,0.2-0.8,0.3-1.2c0.6,0.4,1.2,0.9,1.7,1.3c0.4,0.3,0.7,0.6,1,1
		c-0.1,0.5-0.3,0.8-0.6,1.3c-1.2,2.1-2.4,4.3-3.6,6.5c-0.4,0.6-0.7,1.2-1,1.9c-0.1,0-0.2,0-0.3,0c0.3-1.4,0.6-2.9,1-4.3
		C-147.7,441.9-147.2,439.8-146.8,437.7 M-150.5,433.4c0.2-0.4,0.4-0.8,0.7-1.1c0.5,0.7,0.9,1.3,1.4,2c0.3,0.4,0.7,0.7,0.9,1.2
		c-0.9,1.2-2,2.2-3,3.4c-0.8,1-1.7,1.9-2.5,2.9c-0.3,0.3-0.6,0.7-0.9,1c-0.6,0.6-1.1,1.4-1.8,1.9c0.2-1,0.8-1.8,1.2-2.8
		c0.5-1.1,1.1-2.2,1.5-3.3C-152.1,436.9-151.2,435.2-150.5,433.4 M-158.7,387.3c1.2,0.9,2.2,2,3.4,3c1.2,1.1,2.3,2.1,3.5,3.3
		c2.4,2.1,4.7,4.3,7.1,6.5c0.6,0.6,1.4,1.1,1.9,1.8c0.2,0.2-0.1,0.5-0.2,0.6c-1.1,0.9-2.2,1.7-3.2,2.7c-1.2,1.2-2.3,2.5-3.3,3.9
		c-1.3,2.1-2.4,4.3-2.9,6.8c-0.3,1.1-0.4,2.3-0.6,3.4c0,1.1,0,2.2,0,3.3c0.3,1.5,0.4,3.1,0.9,4.6c0.3,1,0.8,2.1,1.2,3.1
		c0.2,0.5,0.6,1,0.8,1.6c-0.1,0.3-0.4,0.5-0.7,0.7c-2.8,2.1-5.5,4.2-8.3,6.3c-0.8,0.6-1.6,1.3-2.5,1.7c1.4-2,2.9-3.9,4.4-5.8
		c1.2-1.6,2.4-3.2,3.6-4.7c0.3-0.4,0.6-0.8,0.8-1.3c-0.8-0.2-1.3,0.1-1.8,0.4c-3.5,1.6-7,3.2-10.5,4.9c-0.3,0.1-0.6,0.2-0.9,0.2
		c0.4-0.5,0.9-0.9,1.3-1.3c2.2-1.8,4.3-3.7,6.4-5.6c0.8-0.8,1.8-1.5,2.6-2.4c-0.6-0.2-1.3,0-1.9,0.1c-2.5,0.6-5,1.1-7.6,1.7
		c-0.8,0.2-1.7,0.3-2.5,0.6c-0.7,0.1-1.4,0.4-2.2,0.4c0.9-0.6,1.9-1.1,2.8-1.6c3-1.5,5.8-3.2,8.8-4.8c0.5-0.3,1-0.6,1.5-0.9
		c-2-0.1-4,0-6.1,0c-0.5,0-1,0.1-1.5,0.1c-1.5,0-3,0-4.5,0c-0.9,0.1-1.8,0.1-2.6,0.1c0.8-0.6,1.8-0.7,2.7-1
		c3.7-1.1,7.4-2.2,11.1-3.4c-0.5-0.4-1.1-0.5-1.7-0.6c-3.2-0.6-6.4-1.3-9.6-1.9c-0.9-0.2-1.9-0.3-2.8-0.8c0.9-0.1,1.9-0.2,2.8-0.2
		c1.4-0.2,2.8-0.4,4.3-0.4c0.8-0.1,1.6-0.3,2.4-0.3c0.9-0.1,1.9-0.1,2.8-0.3c0.7-0.2,1.5,0,2.2-0.3c-1.1-0.6-2.3-1-3.5-1.5
		c-1.8-0.8-3.7-1.6-5.5-2.3c-1.4-0.7-2.9-1.2-4.4-1.9c0.7-0.3,1.4,0,2,0.1c0.7,0.1,1.4,0.1,2.1,0.2c0.8,0.1,1.7,0.3,2.5,0.3
		c1.3,0.3,2.6,0.3,3.9,0.5c0.9,0.1,1.8,0.1,2.7,0.3c0.5,0.1,0.9,0.1,1.4,0.1c-0.8-0.7-1.7-1.2-2.5-1.8c-2-1.4-3.9-2.8-5.9-4.1
		c-1.1-0.8-2.4-1.5-3.4-2.5c0.3-0.1,0.6-0.1,0.8,0.1c2.8,1.1,5.7,2,8.6,3c1.4,0.5,2.8,1,4.2,1.4c-0.3-0.8-1-1.3-1.6-1.9
		c-1.1-1-2-2.1-3-3.2c-1-1-1.9-2.1-2.9-3.1c-0.8-0.9-1.6-1.8-2.4-2.7c0.1,0,0.2-0.1,0.2-0.1c0.7,0.5,1.5,0.9,2.3,1.4
		c2.8,1.7,5.5,3.3,8.3,5c0.5,0.3,1,0.7,1.7,0.8c-0.1-0.6-0.4-1.1-0.7-1.5c-0.7-1.1-1.3-2.3-2-3.4
		C-155.7,392.3-157.4,389.9-158.7,387.3 M-109.4,367.5c0.3-0.2,0.6-0.4,0.9-0.5c-0.1,0.3-0.3,0.6-0.5,0.8c-1.5,2-3,3.9-4.5,6
		c-1.2,1.7-2.6,3.2-3.7,4.9c1-0.2,1.7-0.8,2.7-1.2c3.3-1.5,6.5-3,9.8-4.5c0.2-0.1,0.5-0.1,0.7,0c-1.2,1.1-2.4,2.1-3.6,3.1
		c-0.9,0.8-1.8,1.6-2.7,2.4c-1.4,1.2-2.8,2.4-4.1,3.6c0.6,0.3,1.2-0.1,1.8-0.2c1.9-0.4,3.7-0.8,5.5-1.2c1.8-0.5,3.6-0.8,5.4-1.3
		c0.4-0.1,0.7,0,1.1,0c-0.7,0.6-1.5,0.9-2.3,1.3c-1.5,0.8-2.9,1.6-4.3,2.4c-1.3,0.7-2.5,1.5-3.9,2.1c-0.6,0.3-1.2,0.7-1.8,1
		c0,0.1,0,0.2,0,0.3c1.9,0,3.9,0,5.8,0c0.5,0,1.1-0.1,1.6-0.1c2,0,3.9,0,5.9,0c0.3,0,0.5,0.1,0.7,0.3c-4.1,1.2-8.1,2.5-12.2,3.7
		c-0.5,0.1-0.9,0.4-1.3,0.6c1.3,0.2,2.6,0.4,3.9,0.7c3.5,0.7,6.9,1.4,10.3,2c-0.6,0.4-1.4,0.2-2.1,0.3c-1.4,0.3-2.8,0.3-4.2,0.4
		c-1.6,0.3-3.2,0.2-4.8,0.5c-0.8,0.2-1.6,0-2.4,0.1c-0.4,0-0.7,0.1-1.1,0.1c0.7,0.6,1.6,0.8,2.4,1.2c2.4,1.1,4.8,2.1,7.2,3.1
		c1.1,0.5,2.2,0.9,3.3,1.4c0,0,0,0.1-0.1,0.2c-1.3,0.2-2.6-0.4-3.9-0.4c-1-0.1-2.1-0.3-3.1-0.4c-1-0.2-2-0.3-3-0.4
		c-1.3-0.3-2.7-0.4-4-0.5c0.4,0.5,0.8,0.9,1.4,1.2c2.9,1.9,5.7,3.9,8.5,5.9c0.8,0.6,1.6,1.1,2.3,1.7c-0.6-0.1-1.1-0.2-1.7-0.4
		c-2.7-1-5.5-1.9-8.2-2.9c-1.3-0.4-2.6-1-4-1.3c0.1,0.6,0.6,0.9,1,1.3c1.1,1.3,2.3,2.6,3.5,3.8c1.2,1.1,2.1,2.4,3.2,3.5
		c0.6,0.7,1.2,1.3,1.8,2c-1-0.4-1.9-1.1-2.8-1.6c-1-0.6-2-1.2-3-1.8c-1.4-0.8-2.8-1.6-4.1-2.5c-0.8-0.5-1.6-1-2.5-1.4
		c0.2,0.7,0.6,1.4,1,2.1c1,1.8,2.1,3.5,3.2,5.3c0.5,0.9,1.1,1.8,1.6,2.7c0.5,0.8,1,1.5,1.3,2.3c-0.9-0.6-1.6-1.5-2.4-2.2
		c-1.4-1.3-2.8-2.7-4.2-4.1c-1.8-1.6-3.5-3.4-5.2-5c-0.9-0.9-1.9-1.8-2.9-2.7c-0.2-0.2-0.4-0.4-0.5-0.6c0.5-0.6,1.1-1.1,1.8-1.6
		c3.5-2.8,6.1-6.7,7.4-11c0.4-1.3,0.6-2.7,0.8-4.1c0-1,0-2.1,0-3.1c0-0.7-0.2-1.4-0.3-2.1c-0.3-1.9-0.8-3.7-1.6-5.4
		c-0.3-0.8-0.7-1.5-1-2.2c0.4-0.5,0.9-0.7,1.4-1.1C-115.3,371.9-112.3,369.7-109.4,367.5 M-115.4,363.3c0.4-0.5,0.9-1.1,1.5-1.5
		c-0.6,1.6-1.4,3.1-2.1,4.6c-1.2,2.5-2.3,5-3.5,7.5c-0.2,0.3-0.3,0.7-0.6,0.7c-0.5-0.6-0.9-1.2-1.3-1.8c-0.3-0.5-0.8-0.8-1.1-1.3
		c0.5-0.8,1.2-1.4,1.8-2.2c0.8-0.8,1.5-1.6,2.1-2.5C-117.4,365.8-116.4,364.5-115.4,363.3 M-149.5,360.3c0.3,0.3,0.6,0.7,0.8,1.1
		c1,1.5,2,2.9,3,4.3c-0.5,0.4-1.2,0.7-1.9,0.8c-0.5-1.5-1-2.9-1.5-4.4C-149.2,361.4-149.5,360.9-149.5,360.3 M-122.3,361.4
		c0.4-1,1-1.9,1.6-2.7c0,0.6-0.2,1.1-0.3,1.7c-0.5,2.1-0.9,4.1-1.4,6.2c-0.3,1.3-0.5,2.6-0.9,3.8c-0.9-0.5-1.6-1.2-2.4-1.8
		c-0.3-0.2-0.2-0.6,0-0.9C-124.6,365.6-123.5,363.5-122.3,361.4 M-142.7,357.5c0.7,1.1,1.1,2.3,1.6,3.5s1.2,2.3,1.5,3.6
		c-0.6,0-1.2,0.2-1.9,0.1c-0.3,0-0.4-0.3-0.4-0.5c-0.1-0.7-0.1-1.4-0.2-2c-0.2-0.9-0.3-1.9-0.3-2.8
		C-142.5,358.8-142.8,358.1-142.7,357.5 M-135.6,358.1c0-0.4,0.1-0.7,0.1-1.1c0.1,0,0.3,0.1,0.4,0.2c0.5,2.6,1,5.2,1.5,7.9
		c-0.9,0.1-1.7-0.2-2.6-0.4c0-0.9,0.2-1.8,0.1-2.7C-135.8,360.6-135.6,359.4-135.6,358.1 M-127.9,356.7c0.2,0.8,0.1,1.6,0.1,2.4
		c0,1.4,0.1,2.8-0.1,4.1c-0.1,1.2,0.1,2.5-0.1,3.7c-0.9-0.1-1.7-0.6-2.5-1c-0.2-0.8,0.2-1.5,0.5-2.3
		C-129.4,361.4-128.7,359.1-127.9,356.7"/>
	<path class="st3" d="M-174.1,408.4c0.3,0.7,0.3,1.4,0.3,2.1c-0.8,0.2-1.6,0.2-2.4,0.3c-0.9,0.2-1.8,0.3-2.7,0.4
		c-0.7,0.1-1.5,0.3-2.2,0.2c1.7-0.8,3.4-1.5,5.1-2.2C-175.4,408.8-174.8,408.5-174.1,408.4 M-173.5,402.3c-0.1,0.6-0.2,1.3-0.3,1.9
		c0,0.2-0.2,0.5-0.5,0.5c-0.4,0-0.8-0.1-1.3-0.1c-1.6,0-3.2-0.4-4.8-0.4c-0.4,0-0.8-0.1-1.2-0.1c0.1-0.1,0.2-0.3,0.2-0.4
		c2-0.4,4-0.8,6-1.2C-174.8,402.4-174.2,402.3-173.5,402.3 M-172.8,414.3c0.3,0.6,0.7,1.2,0.5,1.9c-0.7,0.3-1.5,0.5-2.2,0.8
		c-0.8,0.3-1.7,0.6-2.5,0.9c-0.2,0.1-0.5,0-0.7-0.1C-176.1,416.5-174.5,415.4-172.8,414.3 M-176.7,396.5c1.7,0.3,3.5-0.1,5.2,0.2
		c-0.4,0.9-0.8,1.8-1.3,2.6c-1.9-0.6-3.8-1.1-5.6-1.8c-1.1-0.4-2.2-0.6-3.3-1c0.7-0.1,1.4-0.1,2.1-0.1
		C-178.7,396.5-177.7,396.4-176.7,396.5 M-169.3,391.6c0.4,0.1,0.8,0.2,1.2,0.3c-0.4,0.6-0.9,1.2-1.3,1.7c-0.3,0.4-0.6,0.7-1,1
		c-0.5-0.1-0.8-0.3-1.3-0.6c-2.1-1.2-4.3-2.4-6.5-3.6c-0.6-0.4-1.2-0.7-1.9-1c0-0.1,0-0.2,0-0.3c1.4,0.3,2.9,0.6,4.3,1
		C-173.5,390.7-171.4,391.2-169.3,391.6 M-165,387.9c0.4,0.2,0.8,0.4,1.1,0.7c-0.7,0.5-1.3,0.9-2,1.4c-0.4,0.3-0.7,0.7-1.2,0.9
		c-1.2-0.9-2.2-2-3.4-3c-1-0.8-1.9-1.7-2.9-2.5c-0.3-0.3-0.7-0.6-1-0.9c-0.6-0.6-1.4-1.1-1.9-1.8c1,0.2,1.8,0.8,2.8,1.2
		c1.1,0.5,2.2,1.1,3.3,1.5C-168.5,386.3-166.8,387.2-165,387.9 M-118.9,379.7c-0.9,1.2-2,2.2-3,3.4c-1.1,1.2-2.1,2.3-3.3,3.5
		c-2.1,2.4-4.3,4.7-6.5,7.1c-0.6,0.6-1.1,1.4-1.8,1.9c-0.2,0.2-0.5-0.1-0.6-0.2c-0.9-1.1-1.7-2.2-2.7-3.2c-1.2-1.2-2.5-2.3-3.9-3.3
		c-2.1-1.3-4.3-2.4-6.8-2.9c-1.1-0.3-2.3-0.4-3.4-0.6c-1.1,0-2.2,0-3.3,0c-1.5,0.3-3.1,0.4-4.6,0.9c-1,0.3-2.1,0.8-3.1,1.2
		c-0.5,0.2-1,0.6-1.6,0.8c-0.3-0.1-0.5-0.4-0.7-0.7c-2.1-2.8-4.2-5.5-6.3-8.3c-0.6-0.8-1.3-1.6-1.7-2.5c2,1.4,3.9,2.9,5.8,4.4
		c1.6,1.2,3.2,2.4,4.7,3.6c0.4,0.3,0.8,0.6,1.3,0.8c0.2-0.8-0.1-1.3-0.4-1.8c-1.6-3.5-3.2-7-4.9-10.5c-0.1-0.3-0.2-0.6-0.2-0.9
		c0.5,0.4,0.9,0.9,1.3,1.3c1.8,2.2,3.7,4.3,5.6,6.4c0.8,0.8,1.5,1.8,2.4,2.6c0.2-0.6,0-1.3-0.1-1.9c-0.6-2.5-1.1-5-1.7-7.6
		c-0.2-0.8-0.3-1.7-0.6-2.5c-0.1-0.7-0.4-1.4-0.4-2.2c0.6,0.9,1.1,1.9,1.6,2.8c1.5,3,3.2,5.8,4.8,8.8c0.3,0.5,0.6,1,0.9,1.5
		c0.1-2,0-4,0-6.1c0-0.5-0.1-1-0.1-1.5c0-1.5,0-3,0-4.5c-0.1-0.9-0.1-1.8-0.1-2.6c0.6,0.8,0.7,1.8,1,2.7c1.1,3.7,2.2,7.4,3.4,11.1
		c0.4-0.5,0.5-1.1,0.6-1.7c0.6-3.2,1.3-6.4,1.9-9.6c0.2-0.9,0.3-1.9,0.8-2.8c0.1,0.9,0.2,1.9,0.2,2.8c0.2,1.4,0.4,2.8,0.4,4.3
		c0.1,0.8,0.3,1.6,0.3,2.4c0.1,0.9,0.1,1.9,0.3,2.8c0.2,0.7,0,1.5,0.3,2.2c0.6-1.1,1-2.3,1.5-3.5c0.8-1.8,1.6-3.7,2.3-5.5
		c0.7-1.4,1.2-2.9,1.9-4.4c0.3,0.7,0,1.4-0.1,2c-0.1,0.7-0.1,1.4-0.2,2.1c-0.1,0.8-0.3,1.7-0.3,2.5c-0.3,1.3-0.3,2.6-0.5,3.9
		c-0.1,0.9-0.1,1.8-0.3,2.7c-0.1,0.5-0.1,0.9-0.1,1.4c0.7-0.8,1.2-1.7,1.8-2.5c1.4-2,2.8-3.9,4.1-5.9c0.8-1.1,1.5-2.4,2.5-3.4
		c0.1,0.3,0.1,0.6-0.1,0.8c-1.1,2.8-2,5.7-3,8.6c-0.5,1.4-1,2.8-1.4,4.2c0.8-0.3,1.3-1,1.9-1.6c1-1.1,2.1-2,3.2-3
		c1-1,2.1-1.9,3.1-2.9c0.9-0.8,1.8-1.6,2.7-2.4c0,0.1,0.1,0.2,0.1,0.2c-0.5,0.7-0.9,1.5-1.4,2.3c-1.7,2.8-3.3,5.5-5,8.3
		c-0.3,0.5-0.7,1-0.8,1.7c0.6-0.1,1.1-0.4,1.5-0.7c1.1-0.7,2.3-1.3,3.4-2C-123.9,382.7-121.5,381-118.9,379.7 M-99.1,429
		c0.2,0.3,0.4,0.6,0.5,0.9c-0.3-0.1-0.6-0.3-0.8-0.5c-2-1.5-3.9-3-6-4.5c-1.7-1.2-3.2-2.6-4.9-3.7c0.2,1,0.8,1.7,1.2,2.7
		c1.5,3.3,3,6.5,4.5,9.8c0.1,0.2,0.1,0.5,0,0.7c-1.1-1.2-2.1-2.4-3.1-3.6c-0.8-0.9-1.6-1.8-2.4-2.7c-1.2-1.4-2.4-2.8-3.6-4.1
		c-0.3,0.6,0.1,1.2,0.2,1.8c0.4,1.9,0.8,3.7,1.2,5.5c0.5,1.8,0.8,3.6,1.3,5.4c0.1,0.4,0,0.7,0,1.1c-0.6-0.7-0.9-1.5-1.3-2.3
		c-0.8-1.5-1.6-2.9-2.4-4.3c-0.7-1.3-1.5-2.5-2.1-3.9c-0.3-0.6-0.7-1.2-1-1.8c-0.1,0-0.2,0-0.3,0c0,1.9,0,3.9,0,5.8
		c0,0.5,0.1,1.1,0.1,1.6c0,2,0,3.9,0,5.9c0,0.3-0.1,0.5-0.3,0.7c-1.2-4.1-2.5-8.1-3.7-12.2c-0.1-0.5-0.4-0.9-0.6-1.3
		c-0.2,1.3-0.4,2.6-0.7,3.9c-0.7,3.5-1.4,6.9-2,10.3c-0.4-0.6-0.2-1.4-0.3-2.1c-0.3-1.4-0.3-2.8-0.4-4.2c-0.3-1.6-0.2-3.2-0.5-4.8
		c-0.2-0.8,0-1.6-0.1-2.4c0-0.4-0.1-0.7-0.1-1.1c-0.6,0.7-0.8,1.6-1.2,2.4c-1.1,2.4-2.1,4.8-3.1,7.2c-0.5,1.1-0.9,2.2-1.4,3.3
		c0,0-0.1,0-0.2-0.1c-0.2-1.3,0.4-2.6,0.4-3.9c0.1-1,0.3-2.1,0.4-3.1c0.2-1,0.3-2,0.4-3c0.3-1.3,0.4-2.7,0.5-4
		c-0.5,0.4-0.9,0.8-1.2,1.4c-1.9,2.9-3.9,5.7-5.9,8.5c-0.6,0.8-1.1,1.6-1.7,2.3c0.1-0.6,0.2-1.1,0.4-1.7c1-2.7,1.9-5.5,2.9-8.2
		c0.4-1.3,1-2.6,1.3-4c-0.6,0.1-0.9,0.6-1.3,1c-1.3,1.1-2.6,2.3-3.8,3.5c-1.1,1.2-2.4,2.1-3.5,3.2c-0.7,0.6-1.3,1.2-2,1.8
		c0.4-1,1.1-1.9,1.6-2.8c0.6-1,1.2-2,1.8-3c0.8-1.4,1.6-2.8,2.5-4.1c0.5-0.8,1-1.6,1.4-2.5c-0.7,0.2-1.4,0.6-2.1,1
		c-1.8,1-3.5,2.1-5.3,3.2c-0.9,0.5-1.8,1.1-2.7,1.6c-0.8,0.5-1.5,1-2.3,1.3c0.6-0.9,1.5-1.6,2.2-2.4c1.3-1.4,2.7-2.8,4.1-4.2
		c1.6-1.8,3.4-3.5,5-5.2c0.9-0.9,1.8-1.9,2.7-2.9c0.2-0.2,0.4-0.4,0.6-0.5c0.6,0.5,1.1,1.1,1.6,1.8c2.8,3.5,6.7,6.1,11,7.4
		c1.3,0.4,2.7,0.6,4.1,0.8c1,0,2.1,0,3.1,0c0.7,0,1.4-0.2,2.1-0.3c1.9-0.3,3.7-0.8,5.4-1.6c0.8-0.3,1.5-0.7,2.2-1
		c0.5,0.4,0.7,0.9,1.1,1.4C-103.5,423.1-101.3,426.1-99.1,429 M-94.9,423c0.5,0.4,1.1,0.9,1.5,1.5c-1.6-0.6-3.1-1.4-4.6-2.1
		c-2.5-1.2-5-2.3-7.5-3.5c-0.3-0.2-0.7-0.3-0.7-0.6c0.6-0.5,1.2-0.9,1.8-1.3c0.5-0.3,0.8-0.8,1.3-1.1c0.8,0.5,1.4,1.2,2.2,1.8
		c0.8,0.8,1.6,1.5,2.5,2.1C-97.4,421-96.1,422-94.9,423 M-91.9,388.9c-0.3,0.3-0.7,0.6-1.1,0.8c-1.5,1-2.9,2-4.3,3
		c-0.4-0.5-0.7-1.2-0.8-1.9c1.5-0.5,2.9-1,4.4-1.5C-93,389.2-92.5,388.9-91.9,388.9 M-93,416.1c1,0.4,1.9,1,2.7,1.6
		c-0.6,0-1.1-0.2-1.7-0.3c-2.1-0.5-4.1-0.9-6.2-1.4c-1.3-0.3-2.6-0.5-3.8-0.9c0.5-0.9,1.2-1.6,1.8-2.4c0.2-0.3,0.6-0.2,0.9,0
		C-97.2,413.8-95.1,414.9-93,416.1 M-89.1,395.7c-1.1,0.7-2.3,1.1-3.5,1.6s-2.3,1.2-3.6,1.5c0-0.6-0.2-1.2-0.1-1.9
		c0-0.3,0.3-0.4,0.5-0.4c0.7-0.1,1.4-0.1,2-0.2c0.9-0.2,1.9-0.3,2.8-0.3C-90.4,395.9-89.7,395.6-89.1,395.7 M-89.7,402.8
		c0.4,0,0.7,0.1,1.1,0.1c0,0.1-0.1,0.3-0.2,0.4c-2.6,0.5-5.2,1-7.9,1.5c-0.1-0.9,0.2-1.7,0.4-2.6c0.9,0,1.8,0.2,2.7,0.1
		C-92.2,402.6-91,402.8-89.7,402.8 M-88.3,410.5c-0.8,0.2-1.6,0.1-2.4,0.1c-1.4,0-2.8,0.1-4.1-0.1c-1.2-0.1-2.5,0.1-3.7-0.1
		c0.1-0.9,0.6-1.7,1-2.5c0.8-0.2,1.5,0.2,2.3,0.5C-93,409-90.7,409.7-88.3,410.5"/>
	<path class="st1" d="M-123.1,466.4C-123.1,466.4-123,466.4-123.1,466.4l0,0.1C-123.1,466.5-123.1,466.4-123.1,466.4 M-125.2,455.1
		C-125.2,455.1-125.1,455.1-125.2,455.1c0.1,0.1,0.2,0.3,0.2,0.4c0.1,0.3,0.1,0.6,0.2,0.8c0.1,0.3,0,0.6,0,0.9c0,0.2,0,0.4-0.1,0.7
		c-0.1,0.6-0.3,1.1-0.5,1.6c-0.3,0.7-0.8,1.3-1.4,1.8c-0.2,0.2-0.5,0.4-0.7,0.6c0,0.1,0.1,0.1,0.1,0.1c0.3,0.2,0.5,0.5,0.8,0.7
		c0.3,0.3,0.6,0.6,0.9,0.8c0.6,0.6,1.2,1.2,1.8,1.7c0.3,0.3,0.5,0.6,0.8,0.8c-0.4,0.1-0.8,0.2-1.2,0.3c-0.3,0.1-0.6,0-0.9,0
		c-0.4,0-0.7-0.1-1.1-0.1c-1.2-0.3-2.3-1-3.1-1.9c-0.2-0.2-0.3-0.5-0.6-0.7c-0.1,0.1-0.2,0.2-0.2,0.2c-0.4,0.5-0.9,0.9-1.3,1.4
		c-0.3,0.3-0.6,0.7-1,1c-0.3,0.3-0.6,0.6-0.9,1c-0.3,0.2-0.5,0.5-0.8,0.8c-0.1-0.4-0.2-0.7-0.2-1.1c-0.1-0.4,0-0.7,0-1.1
		c0.1-0.7,0.2-1.4,0.5-2c0.2-0.4,0.4-0.8,0.7-1.1c0.4-0.5,0.8-0.9,1.2-1.2c0.1-0.1,0.3-0.2,0.4-0.4c-0.2-0.2-0.4-0.3-0.5-0.5
		c-0.6-0.6-1.3-1.2-1.9-1.7c-0.3-0.3-0.7-0.6-1-0.9c-0.3-0.3-0.7-0.7-1-1c0,0,0,0,0,0c0.3-0.1,0.7-0.2,1.1-0.2c0.4-0.1,0.7,0,1.1,0
		c0.5,0.1,1.1,0.1,1.6,0.3c0.4,0.2,0.8,0.4,1.2,0.6c0.4,0.3,0.8,0.7,1.2,1c0.2,0.2,0.4,0.5,0.6,0.7c0,0,0.1,0.1,0.1,0.1
		c0.2-0.2,0.4-0.4,0.6-0.6c0.5-0.6,1.1-1.2,1.6-1.8c0.4-0.4,0.7-0.8,1.1-1.1C-125.8,455.7-125.5,455.4-125.2,455.1"/>
</g>
</svg>
