<?xml version="1.0" standalone="no"?>
<!DOCTYPE svg PUBLIC "-//W3C//DTD SVG 20010904//EN"
 "http://www.w3.org/TR/2001/REC-SVG-20010904/DTD/svg10.dtd">
<svg version="1.0" xmlns="http://www.w3.org/2000/svg"
 width="700.000000pt" height="700.000000pt" viewBox="0 0 700.000000 700.000000"
 preserveAspectRatio="xMidYMid meet">
<metadata>
Created by potrace 1.11, written by Peter Selinger 2001-2013
</metadata>
<g transform="translate(0.000000,700.000000) scale(0.100000,-0.100000)"
fill="#000000" stroke="none">
<path d="M3991 6859 c-24 -74 -58 -188 -76 -254 -18 -66 -41 -142 -52 -170
-11 -27 -19 -65 -19 -84 1 -31 7 -38 55 -67 51 -31 117 -51 128 -40 11 10 23
686 13 725 -4 19 -16 -7 -49 -110z"/>
<path d="M3459 6928 c-2 -80 -6 -143 -13 -193 -15 -103 -17 -130 -19 -233 l-2
-106 50 -13 c54 -14 122 -20 130 -11 3 3 -10 86 -30 184 -20 99 -38 195 -41
214 -3 19 -9 51 -14 70 -5 19 -12 53 -16 75 -7 48 -11 55 -30 55 -10 0 -14
-13 -15 -42z"/>
<path d="M2925 6898 c4 -18 12 -53 20 -78 8 -25 16 -76 19 -115 3 -38 10 -99
15 -135 6 -36 11 -84 13 -108 1 -24 8 -48 15 -54 11 -9 61 -11 141 -5 6 0 12
4 12 8 0 20 -36 110 -79 198 -26 53 -55 119 -65 146 -19 52 -83 175 -92 175
-2 0 -2 -15 1 -32z"/>
<path d="M4522 6768 c-21 -35 -68 -117 -102 -183 -35 -66 -79 -151 -100 -190
-115 -217 -136 -262 -133 -277 4 -16 169 -148 184 -148 6 0 44 140 79 292 18
82 22 100 36 168 3 14 14 59 24 101 37 144 68 299 60 299 -4 0 -26 -28 -48
-62z"/>
<path d="M2420 6707 c0 -27 33 -137 87 -290 43 -120 59 -157 70 -152 8 3 27 8
41 12 15 3 39 15 55 25 l27 20 -87 126 c-48 70 -109 160 -136 200 -50 74 -57
81 -57 59z"/>
<path d="M5024 6558 c-27 -29 -67 -75 -89 -103 -55 -69 -113 -132 -159 -175
-21 -19 -59 -62 -84 -95 -25 -33 -65 -80 -88 -105 -50 -53 -164 -189 -164
-195 0 -3 30 -42 66 -87 36 -46 78 -99 93 -118 27 -34 28 -34 45 -14 9 11 46
82 82 159 36 77 76 163 89 190 23 49 81 175 123 265 106 230 148 330 139 330
-2 0 -26 -24 -53 -52z"/>
<path d="M2768 6225 c-17 -30 -42 -132 -74 -305 -46 -252 -39 -213 -89 -462
-24 -120 -50 -230 -58 -245 -14 -26 -16 -23 -65 132 -28 88 -67 214 -86 280
-20 66 -49 163 -65 215 -16 52 -42 138 -57 190 -14 52 -37 117 -49 145 l-23
49 5 -279 c9 -552 10 -815 4 -815 -8 0 -138 227 -306 535 -175 319 -239 430
-243 413 -1 -8 11 -67 28 -132 16 -65 37 -150 46 -189 8 -40 17 -79 19 -87
116 -496 140 -620 118 -620 -6 0 -23 15 -39 34 -16 18 -64 71 -106 117 -129
140 -135 147 -313 354 -95 110 -187 214 -205 230 l-32 30 7 -30 c8 -36 17 -57
108 -245 38 -80 98 -208 134 -285 36 -77 89 -191 119 -252 52 -109 68 -174 42
-173 -19 1 -230 158 -568 422 -148 116 -127 99 -223 171 -42 31 -77 55 -77 52
0 -11 48 -77 276 -380 352 -468 348 -463 360 -468 6 -3 41 10 77 29 155 79
361 149 497 168 19 3 59 9 88 14 104 18 337 7 473 -21 337 -70 564 -186 808
-413 84 -77 87 -80 203 -219 46 -55 92 -101 100 -103 18 -3 53 29 159 149 37
41 82 90 100 110 19 19 70 75 114 124 44 48 85 93 90 99 6 6 37 40 69 76 33
36 116 125 185 199 69 74 133 142 141 151 8 9 51 56 95 105 44 49 94 104 112
124 18 19 30 37 29 39 -6 6 -105 -47 -226 -121 -184 -112 -411 -247 -416 -247
-3 0 -55 -30 -117 -67 -161 -98 -189 -107 -170 -56 8 22 422 709 464 769 16
23 29 45 29 49 0 3 10 19 21 34 66 90 -33 18 -227 -165 -23 -22 -86 -79 -140
-129 -54 -49 -162 -152 -239 -228 -128 -125 -185 -176 -185 -163 0 2 23 71 50
153 28 81 92 269 142 418 50 148 103 301 119 340 16 38 29 79 29 90 -1 30 -40
-18 -203 -255 -77 -113 -175 -252 -217 -310 -41 -58 -89 -125 -105 -150 -84
-127 -112 -150 -101 -83 10 61 22 157 31 258 7 74 14 130 26 215 5 36 14 99
19 140 5 41 17 131 26 200 31 240 27 254 -31 109 -23 -57 -52 -126 -64 -154
-13 -27 -47 -111 -76 -185 -55 -140 -199 -472 -227 -525 l-16 -30 -6 25 c-3
14 -7 52 -10 85 -3 33 -8 76 -11 95 -6 38 -9 71 -20 195 -4 44 -9 83 -11 86
-2 4 -6 47 -9 95 -3 49 -7 105 -10 124 -2 19 -7 60 -11 90 -3 30 -8 58 -9 61
-2 3 -5 41 -6 85 -2 83 -11 135 -21 119z"/>
<path d="M5430 6191 c-30 -21 -127 -91 -215 -156 -88 -65 -243 -173 -345 -240
-102 -68 -193 -132 -203 -143 -18 -19 -17 -22 16 -94 99 -212 120 -272 157
-458 69 -340 22 -661 -145 -995 -111 -221 -227 -363 -484 -596 l-94 -84 68
-65 c279 -264 334 -317 630 -605 369 -359 408 -395 429 -407 22 -12 30 -25
-139 247 -290 467 -384 629 -371 642 5 5 445 -253 724 -424 91 -57 170 -103
175 -103 7 0 -109 136 -153 180 -3 3 -39 43 -80 89 -41 47 -106 117 -144 155
-38 39 -105 112 -149 161 -44 50 -92 101 -107 115 -15 14 -35 37 -45 53 -16
25 -16 27 0 27 17 0 183 -53 220 -71 11 -5 34 -13 50 -18 27 -8 169 -58 480
-168 111 -39 182 -63 205 -68 8 -2 29 -6 45 -10 l30 -6 -35 31 c-42 38 -415
300 -655 460 -148 99 -215 151 -215 168 0 5 120 -5 161 -13 13 -3 75 -12 138
-20 63 -9 126 -17 140 -20 42 -6 313 -44 356 -49 22 -3 81 -10 131 -17 49 -7
99 -9 110 -5 17 7 16 9 -11 22 -87 40 -176 79 -320 139 -182 76 -273 115 -363
156 -34 16 -65 29 -67 29 -11 0 -176 83 -181 91 -5 9 3 10 111 14 69 3 193 14
222 19 10 2 64 7 118 11 55 3 102 8 106 11 4 2 54 7 111 10 56 3 137 10 178
16 41 5 103 11 137 13 34 2 70 8 79 13 19 10 8 14 -76 27 -29 5 -185 32 -280
49 -26 4 -200 40 -370 75 -120 25 -139 29 -227 43 -40 6 -73 15 -73 19 0 9 80
42 155 64 33 9 78 23 100 31 22 7 146 45 275 84 440 133 463 141 451 153 -11
11 -46 12 -746 7 -307 -2 -295 -2 -289 13 6 14 106 74 189 111 33 15 96 48
140 73 44 26 102 59 130 73 192 104 410 226 437 244 22 16 22 16 -19 16 -23 0
-158 -29 -300 -64 -142 -35 -271 -66 -288 -69 -32 -5 -122 -26 -250 -57 -110
-28 -120 -29 -134 -21 -8 5 2 19 31 44 24 19 57 48 73 64 17 15 91 80 165 143
74 63 155 133 180 156 25 23 95 83 155 135 61 52 120 102 132 113 25 21 22 37
-5 31 -10 -2 -85 -34 -167 -73 -212 -98 -273 -126 -420 -194 -71 -33 -173 -81
-225 -108 -144 -73 -149 -73 -98 -2 24 33 153 205 288 382 288 378 325 428
319 434 -2 2 -29 -13 -59 -33z"/>
<path d="M420 5035 c0 -5 191 -177 300 -270 95 -81 139 -120 262 -232 38 -34
81 -71 97 -82 l29 -21 38 30 c22 16 74 55 116 87 72 53 76 58 62 75 -9 9 -51
31 -93 49 -120 49 -197 83 -324 143 -65 31 -120 56 -123 56 -2 0 -73 34 -157
76 -137 69 -207 99 -207 89z"/>
<path d="M1740 4683 c0 -12 120 -222 183 -321 52 -80 299 -506 329 -565 11
-22 17 -41 14 -44 -3 -3 -31 8 -63 24 -55 28 -602 357 -725 436 -124 79 -137
86 -142 79 -2 -4 11 -25 31 -47 55 -63 185 -206 218 -241 17 -17 68 -73 115
-125 47 -52 147 -156 222 -232 76 -76 138 -144 138 -152 0 -10 -57 6 -202 56
-112 38 -291 99 -399 135 -108 35 -239 82 -292 103 -180 72 -139 29 173 -184
80 -55 199 -138 265 -185 66 -47 154 -109 195 -138 41 -28 86 -60 99 -70 l24
-19 -34 2 c-33 2 -101 11 -164 20 -16 3 -59 7 -95 10 -36 3 -75 7 -85 9 -11 2
-51 7 -90 10 -38 4 -77 9 -85 11 -17 5 -225 31 -315 40 -33 3 -83 11 -111 17
-29 6 -65 7 -80 4 -27 -7 -22 -10 57 -41 48 -18 113 -45 145 -60 33 -15 110
-47 173 -72 110 -42 316 -130 375 -159 16 -8 32 -14 36 -14 13 0 183 -81 178
-85 -2 -2 -26 -6 -53 -10 -77 -9 -135 -16 -154 -20 -10 -2 -51 -6 -92 -9 -41
-4 -90 -9 -109 -11 -78 -10 -135 -16 -199 -20 -70 -5 -162 -14 -196 -21 -11
-2 -60 -7 -110 -10 -78 -5 -127 -10 -145 -14 -3 0 6 -7 20 -14 26 -14 199 -54
350 -81 121 -21 131 -23 270 -50 69 -14 136 -27 150 -30 14 -3 48 -9 76 -15
28 -6 64 -13 79 -16 16 -3 45 -13 64 -22 l35 -16 -89 -29 c-50 -16 -146 -47
-215 -69 -69 -22 -133 -41 -143 -43 -10 -2 -62 -17 -115 -34 -53 -16 -167 -51
-252 -76 -148 -45 -210 -69 -210 -81 0 -3 48 -3 108 0 59 3 302 8 541 12 457
7 461 7 383 -36 -20 -11 -53 -30 -72 -41 -53 -32 -369 -207 -510 -284 -154
-83 -330 -185 -330 -191 0 -7 169 28 187 39 4 3 64 17 133 32 139 30 129 27
225 50 39 9 78 18 88 20 9 2 86 20 170 39 151 35 179 39 227 37 l25 -1 -30
-27 c-17 -15 -53 -47 -80 -72 -230 -209 -400 -360 -475 -420 -25 -19 -79 -68
-120 -109 -67 -65 -72 -72 -45 -66 17 4 104 42 194 85 90 44 165 79 166 79 2
0 65 30 141 66 77 36 159 75 184 86 25 11 81 38 125 60 73 36 127 50 141 35 9
-9 -20 -57 -82 -137 -32 -41 -95 -124 -141 -185 -45 -60 -86 -114 -90 -120 -4
-5 -42 -53 -83 -105 -41 -52 -80 -102 -87 -110 -7 -8 -42 -55 -79 -105 -37
-49 -72 -96 -78 -104 -25 -33 51 21 354 249 450 338 475 358 488 373 9 11 5
27 -19 73 -136 262 -199 524 -194 794 2 80 6 159 9 175 7 30 23 113 30 150 31
159 113 363 204 505 79 124 238 306 347 395 33 28 62 52 65 55 3 3 29 25 58
49 28 23 52 50 52 58 0 15 -39 56 -131 138 -24 22 -98 90 -164 150 -148 136
-127 117 -221 202 -43 39 -90 81 -104 93 -14 12 -61 56 -105 99 -81 78 -136
129 -299 276 -152 136 -156 140 -156 128z"/>
<path d="M6655 4570 c-37 -8 -383 -125 -391 -133 -7 -6 16 -72 36 -105 l20
-32 27 17 c16 10 80 54 143 98 63 44 141 97 173 118 76 50 75 53 -8 37z"/>
<path d="M123 4557 c1 -7 16 -19 32 -28 33 -17 298 -165 520 -289 148 -83 160
-88 187 -76 20 9 158 178 158 193 0 5 -6 10 -12 10 -7 1 -47 9 -88 18 -41 9
-84 19 -95 21 -11 2 -45 9 -75 15 -30 6 -172 39 -315 74 -311 76 -315 77 -312
62z"/>
<path d="M6860 4062 c-50 -15 -62 -17 -169 -27 -41 -3 -78 -8 -81 -10 -4 -2
-42 -7 -86 -11 -43 -3 -89 -12 -100 -20 -20 -12 -21 -20 -17 -81 3 -37 7 -70
9 -72 7 -7 69 17 174 66 52 25 122 56 155 69 81 34 185 87 185 94 0 10 -21 8
-70 -8z"/>
<path d="M30 4011 c0 -5 12 -12 28 -16 15 -3 155 -46 311 -96 156 -49 289 -89
296 -89 14 0 110 178 101 188 -4 3 -82 7 -174 9 -92 1 -256 5 -364 8 -115 3
-198 1 -198 -4z"/>
<path d="M456 3573 c-1 -1 -13 -4 -26 -6 -14 -3 -61 -13 -105 -22 -44 -9 -89
-18 -100 -21 -23 -4 -126 -27 -137 -30 -5 -1 -19 -2 -32 -3 -22 -1 -62 -28
-54 -37 4 -4 75 -11 193 -20 50 -3 93 -8 96 -10 3 -1 50 -6 105 -9 54 -4 114
-8 131 -10 18 -1 39 3 48 9 19 14 47 156 31 162 -10 3 -145 1 -150 -3z"/>
<path d="M6390 3522 c-7 -31 -14 -73 -15 -95 -3 -37 -2 -38 29 -33 25 4 149
28 371 72 11 2 31 6 45 9 31 7 53 11 107 20 44 7 62 21 47 35 -5 4 -61 11
-124 15 -63 4 -117 8 -120 10 -11 7 -110 16 -216 20 l-111 4 -13 -57z"/>
<path d="M6281 3096 c-41 -83 -50 -126 -24 -127 145 -9 686 -16 713 -9 19 5
-5 16 -110 49 -74 23 -155 49 -180 58 -25 8 -79 23 -120 32 -41 10 -93 26
-115 36 -22 9 -60 19 -85 22 l-46 5 -33 -66z"/>
<path d="M510 3104 c-19 -8 -44 -23 -55 -33 -11 -10 -65 -35 -120 -56 -55 -21
-140 -58 -190 -81 l-90 -43 64 5 c36 3 67 7 70 9 3 1 31 6 61 9 53 6 86 11
140 21 14 3 45 7 70 10 95 11 125 17 131 26 9 16 -10 132 -24 141 -16 10 -16
10 -57 -8z"/>
<path d="M3399 2849 c-19 -19 -69 -72 -112 -119 -92 -99 -425 -446 -577 -600
-128 -130 -316 -325 -350 -364 l-25 -28 50 26 c28 14 91 52 142 83 120 76 418
259 513 317 96 58 199 110 206 103 3 -3 -62 -117 -144 -253 -81 -137 -164
-276 -182 -309 -19 -33 -57 -96 -85 -140 -82 -128 -126 -207 -111 -198 8 4 54
44 103 89 48 45 111 100 138 124 28 23 100 90 161 149 61 58 141 133 179 166
38 33 84 77 104 98 43 45 91 75 91 55 0 -7 -21 -71 -46 -143 -25 -71 -69 -200
-99 -285 -29 -85 -85 -247 -124 -360 -81 -232 -87 -262 -41 -210 31 37 282
395 466 665 112 165 142 205 155 205 9 0 -1 -136 -16 -210 -6 -32 -18 -115
-30 -210 -3 -25 -7 -56 -10 -69 -2 -14 -7 -47 -10 -75 -3 -28 -7 -58 -10 -66
-2 -8 -6 -42 -10 -75 -9 -92 -15 -137 -24 -170 -10 -40 -14 -152 -6 -166 7
-10 52 83 121 251 20 47 41 99 49 115 7 17 25 59 40 95 26 62 36 86 90 205 12
28 41 94 65 148 23 54 51 108 61 120 l18 22 2 -40 c1 -22 3 -71 4 -110 2 -64
10 -155 19 -201 2 -11 7 -66 11 -123 3 -58 8 -107 10 -110 1 -4 6 -55 10 -114
3 -60 8 -116 10 -125 4 -26 16 -132 20 -184 4 -52 23 -100 25 -63 1 11 3 29 5
40 3 11 20 106 39 210 19 105 38 204 41 220 3 17 18 86 31 155 14 69 28 134
30 145 2 11 14 76 27 145 l23 124 22 -44 c11 -25 48 -135 82 -245 34 -110 77
-252 96 -315 19 -63 50 -165 69 -226 19 -61 38 -125 41 -143 6 -29 9 -31 21
-18 16 15 16 36 9 785 -1 128 1 237 4 242 13 20 34 -11 114 -170 43 -86 158
-298 267 -490 10 -19 40 -73 64 -120 25 -47 54 -96 65 -110 l20 -25 0 37 c0
20 -30 157 -66 304 -36 147 -68 277 -70 288 -10 52 -18 90 -50 223 -33 139
-36 197 -8 158 7 -9 30 -36 51 -59 39 -41 276 -315 412 -474 235 -275 251
-281 141 -47 -23 50 -98 209 -165 355 -68 146 -139 295 -158 331 -40 75 -52
109 -40 109 4 0 49 -31 98 -68 275 -208 685 -519 717 -545 21 -17 41 -27 44
-24 9 9 -16 45 -174 260 -72 98 -187 262 -255 365 -68 103 -131 193 -141 201
-14 12 -23 11 -69 -12 -166 -83 -296 -130 -447 -161 -41 -9 -88 -19 -105 -23
-51 -11 -367 -12 -425 -1 -210 40 -337 81 -495 160 -194 97 -347 215 -496 379
-46 51 -107 117 -135 147 l-50 54 -35 -33z"/>
<path d="M6089 2779 c-49 -53 -114 -147 -107 -155 5 -5 170 -48 223 -58 15 -3
415 -95 530 -122 36 -9 115 -21 115 -18 0 10 -162 105 -305 179 -93 49 -215
113 -270 143 -149 81 -141 80 -186 31z"/>
<path d="M547 2595 c-60 -41 -138 -98 -175 -127 -65 -52 -66 -53 -37 -56 18
-2 96 22 200 61 161 60 170 66 173 92 4 32 -26 105 -42 105 -6 -1 -60 -34
-119 -75z"/>
<path d="M5850 2529 c-19 -16 -70 -57 -113 -90 -43 -34 -76 -66 -74 -72 4 -14
75 -50 282 -146 83 -38 191 -88 240 -111 50 -23 128 -59 175 -80 47 -21 120
-54 164 -74 132 -61 120 -43 -84 130 -80 67 -154 135 -165 150 -11 15 -51 50
-90 79 -38 29 -86 68 -105 88 -39 39 -181 157 -190 157 -3 0 -21 -14 -40 -31z"/>
<path d="M2363 1293 c-12 -21 -37 -76 -56 -123 -19 -47 -58 -135 -86 -194 -28
-60 -51 -110 -51 -112 0 -2 -43 -92 -96 -201 -109 -225 -117 -243 -105 -243 5
0 28 21 51 48 24 26 57 63 74 82 18 19 58 67 91 105 32 39 126 145 208 237
196 219 185 201 153 243 -14 18 -31 39 -39 47 -7 7 -35 43 -62 81 -27 37 -52
67 -55 67 -4 0 -16 -17 -27 -37z"/>
<path d="M2635 1001 c-3 -6 -21 -85 -40 -178 -19 -92 -63 -287 -99 -433 -36
-145 -62 -268 -57 -273 8 -8 56 73 273 463 136 246 139 251 126 273 -10 18
-178 157 -190 157 -4 0 -9 -4 -13 -9z"/>
<path d="M2998 728 c0 -18 -2 -87 -4 -153 -1 -66 -5 -218 -9 -337 -5 -139 -4
-218 2 -218 5 0 10 6 11 13 0 6 21 75 46 152 113 355 137 432 139 458 2 27 -5
32 -83 73 -47 24 -88 44 -92 44 -5 0 -9 -15 -10 -32z"/>
<path d="M4373 686 l-52 -22 52 -81 c54 -84 197 -272 208 -273 21 -1 10 45
-47 196 -35 93 -64 175 -64 182 0 6 -3 12 -7 13 -5 0 -15 2 -24 4 -8 1 -38 -7
-66 -19z"/>
<path d="M3424 523 c4 -71 38 -262 61 -343 2 -8 6 -31 9 -50 3 -19 10 -49 15
-67 5 -17 7 -33 5 -36 -3 -2 2 -10 11 -17 21 -18 26 -10 30 52 10 131 15 195
20 218 3 14 8 63 11 110 3 47 7 102 9 122 4 54 -11 68 -95 84 -41 8 -76 14
-78 14 -1 0 0 -39 2 -87z"/>
<path d="M3965 584 c-6 -1 -27 -5 -47 -9 -48 -8 -49 -28 -9 -100 16 -28 54
-111 84 -185 30 -74 67 -160 81 -190 23 -49 26 -52 26 -25 0 17 -4 57 -10 90
-5 33 -12 78 -15 100 -3 23 -7 50 -9 60 -2 11 -7 45 -11 75 -24 190 -23 186
-54 186 -15 0 -31 -1 -36 -2z"/>
</g>
</svg>
